<?xml version="1.0" encoding="UTF-8"?>
<svg version="1.1" xmlns="http://www.w3.org/2000/svg" width="1200" height="300">
<path d="M0 0 C396 0 792 0 1200 0 C1200 99 1200 198 1200 300 C804 300 408 300 0 300 C0 201 0 102 0 0 Z " fill="#FEFEFE" transform="translate(0,0)"/>
<path d="M0 0 C100.58627232 0 100.58627232 0 115.8125 14.1875 C125.75575804 24.79007802 128.53989958 35.96438873 128.3125 50.1484375 C127.34174586 62.11298225 122.6665505 72.02033343 113.75 80 C111.84891017 81.59161009 110.21602853 82.89198574 108 84 C109.00160156 84.49628906 110.00320313 84.99257812 111.03515625 85.50390625 C124.77139059 92.45140367 132.65194359 100.08077491 137.6796875 115.01953125 C140.13562514 130.20441396 135.89070876 144.3617128 127.6640625 157.0625 C118.28227982 169.21001052 102.28665091 173.40242711 88 176 C58.96 176 29.92 176 0 176 C0 117.92 0 59.84 0 0 Z " fill="#012466" transform="translate(167,58)"/>
<path d="M0 0 C11.55 0 23.1 0 35 0 C35.33 31.02 35.66 62.04 36 94 C52.68935577 77.89791859 52.68935577 77.89791859 67.70776367 60.40356445 C72.07919994 54.90137446 76.07266187 50.92439873 83.26416016 49.95849609 C89.29755554 49.56624508 95.28294705 49.86092489 101.3125 50.1875 C103.42104422 50.25282969 105.5297845 50.31212408 107.63867188 50.36523438 C112.76402538 50.50730887 117.87981146 50.73085168 123 51 C122.05473397 52.27888449 121.1068838 53.5558592 120.15795898 54.83203125 C119.63040512 55.54335205 119.10285126 56.25467285 118.55931091 56.98754883 C116.58093279 59.54084935 114.39172876 61.76514842 112.0625 64 C108.5719785 67.41812549 105.28594131 70.89129179 102.11328125 74.6015625 C98.55395224 78.64117065 94.84386526 82.54186736 91.14941406 86.45776367 C89.99322838 87.68778625 88.84288466 88.92332877 87.69873047 90.16455078 C86.54796863 91.40792927 85.37958687 92.63518887 84.19580078 93.84716797 C83.35831299 94.74072998 83.35831299 94.74072998 82.50390625 95.65234375 C81.74509155 96.43919556 81.74509155 96.43919556 80.97094727 97.24194336 C79.77904047 99.0217588 79.77904047 99.0217588 80.17895508 101.43066406 C81.03685238 104.11532394 82.09201773 106.10137835 83.6328125 108.45703125 C84.18404785 109.30998779 84.7352832 110.16294434 85.30322266 111.04174805 C85.90440918 111.95609619 86.5055957 112.87044434 87.125 113.8125 C88.40727403 115.7936084 89.68848752 117.77540357 90.96875 119.7578125 C91.63390625 120.78422852 92.2990625 121.81064453 92.984375 122.86816406 C96.24996022 127.94216202 99.4369464 133.06456502 102.625 138.1875 C107.70760867 146.3411117 112.81269737 154.47957098 117.96923828 162.58666992 C121.40461251 168.00370348 124.71968793 173.48781873 128 179 C91.26020181 182.77240079 91.26020181 182.77240079 81.73291016 177.03125 C76.68841372 171.71283032 74.09596577 165.23030494 71.4765625 158.47021484 C68.93420103 152.49516096 65.29957682 147.22807312 61.75 141.8125 C60.51034626 139.84315673 59.275589 137.87071855 58.046875 135.89453125 C57.52963867 135.06800049 57.01240234 134.24146973 56.47949219 133.38989258 C54.96296368 130.94017351 53.47660762 128.47395092 52 126 C48.3758636 127.51900022 46.142376 129.68070454 43.4375 132.5 C41.0038015 135.02809153 38.92990599 137.04672934 36 139 C35.66238965 142.04440276 35.51082557 144.8948124 35.48828125 147.9453125 C35.47033005 148.8303244 35.45237885 149.7153363 35.43388367 150.62716675 C35.37961015 153.45972904 35.34583081 156.29212126 35.3125 159.125 C35.27934192 161.04299251 35.24485369 162.96096253 35.20898438 164.87890625 C35.12136381 169.58596428 35.06144247 174.29223546 35 179 C23.45 179 11.9 179 0 179 C0 119.93 0 60.86 0 0 Z " fill="#002366" transform="translate(933,55)"/>
<path d="M0 0 C6.39260889 5.62667418 11.35610255 12.34039544 14.54296875 20.23828125 C13.54296875 23.23828125 13.54296875 23.23828125 11.19799805 24.51269531 C10.18133057 24.92229492 9.16466309 25.33189453 8.1171875 25.75390625 C7.01052734 26.19992188 5.90386719 26.6459375 4.76367188 27.10546875 C3.01473633 27.78996094 3.01473633 27.78996094 1.23046875 28.48828125 C0.07611328 28.96007812 -1.07824219 29.431875 -2.26757812 29.91796875 C-3.37810547 30.35882813 -4.48863281 30.7996875 -5.6328125 31.25390625 C-6.65286377 31.65899414 -7.67291504 32.06408203 -8.72387695 32.48144531 C-11.54066626 33.26144057 -12.79531046 33.36302082 -15.45703125 32.23828125 C-16.94921875 30.53125 -16.94921875 30.53125 -18.33203125 28.42578125 C-22.26106941 22.9073583 -26.82208627 19.79944477 -33.45703125 18.23828125 C-42.42417667 17.27023714 -50.51908683 19.60617838 -57.59765625 25.2265625 C-66.51443432 34.87391692 -66.99087296 46.62025787 -66.58447266 58.96435547 C-66.04356345 68.61575071 -63.47425868 77.34525253 -56.45703125 84.23828125 C-49.28669848 89.34241257 -42.2046314 91.70049007 -33.45703125 90.23828125 C-24.23780928 88.04837808 -19.56507599 82.90034835 -14.45703125 75.23828125 C-8.58291459 76.26605223 -3.24791325 78.46491473 2.29296875 80.61328125 C3.35902344 81.01289063 4.42507813 81.4125 5.5234375 81.82421875 C6.53535156 82.21609375 7.54726563 82.60796875 8.58984375 83.01171875 C9.51635742 83.36669434 10.44287109 83.72166992 11.39746094 84.08740234 C13.54296875 85.23828125 13.54296875 85.23828125 14.54296875 88.23828125 C8.7538276 103.01391348 -2.55206113 111.92048182 -16.70703125 118.11328125 C-32.76443355 124.81125845 -52.4130349 122.02983872 -68.0703125 115.80078125 C-82.20797187 109.37316781 -92.82100224 99.19616799 -98.91796875 84.78515625 C-106.02868971 65.79583206 -108.02814925 43.34125412 -99.62744141 24.36425781 C-92.04553482 8.64156155 -79.95101241 -3.25237702 -63.42041016 -9.11206055 C-41.72087537 -16.29217272 -18.43000176 -14.12168966 0 0 Z " fill="#022567" transform="translate(841.45703125,115.76171875)"/>
<path d="M0 0 C1.09248047 -0.00580078 1.09248047 -0.00580078 2.20703125 -0.01171875 C7.62157931 -0.00171034 7.62157931 -0.00171034 9.875 1.125 C9.875 12.015 9.875 22.905 9.875 34.125 C6.905 33.795 3.935 33.465 0.875 33.125 C-8.96981111 32.38084451 -15.97363259 33.95492775 -24.375 39.125 C-32.37550535 46.53455893 -34.7113535 58.25148289 -35.33752441 68.65649414 C-35.44999319 72.65062078 -35.50634694 76.64134466 -35.5390625 80.63671875 C-35.55781677 82.10074401 -35.57739319 83.56475894 -35.5977478 85.02876282 C-35.64862604 88.84424697 -35.68848586 92.659766 -35.72589111 96.47540283 C-35.77332644 101.07374779 -35.83473054 105.67192575 -35.89373779 110.27013397 C-35.98140846 117.22168691 -36.05155886 124.17321669 -36.125 131.125 C-47.675 131.125 -59.225 131.125 -71.125 131.125 C-71.125 88.885 -71.125 46.645 -71.125 3.125 C-59.575 3.125 -48.025 3.125 -36.125 3.125 C-35.63 12.53 -35.63 12.53 -35.125 22.125 C-34.279375 20.59875 -33.43375 19.0725 -32.5625 17.5 C-27.26586934 8.74636099 -19.9680559 3.87605011 -10.33203125 0.49609375 C-6.89979399 -0.08100809 -3.46924582 -0.01861849 0 0 Z " fill="#012466" transform="translate(460.125,102.875)"/>
<path d="M0 0 C0.14876435 4.46560056 0.25740399 8.92987491 0.32958984 13.3972168 C0.35969086 14.91537611 0.40058346 16.43336251 0.45263672 17.95092773 C0.52576394 20.13829199 0.55951745 22.3233517 0.5859375 24.51171875 C0.6173584 25.82615967 0.6487793 27.14060059 0.68115234 28.49487305 C-0.25881422 33.33182644 -2.0355619 34.21910837 -6 37 C-14.14868364 46.58430781 -14.82130544 58.97708134 -14.1640625 70.97998047 C-13.45159266 79.75226535 -10.83729585 87.32880475 -5 94 C-4.15010498 94.5475293 -3.30020996 95.09505859 -2.42456055 95.65917969 C0 98 0 98 0.56762695 101.39160156 C0.54144287 102.7112793 0.51525879 104.03095703 0.48828125 105.390625 C0.48120651 106.09523865 0.47413177 106.79985229 0.46684265 107.52581787 C0.43893357 109.76830891 0.37621287 112.00826871 0.3125 114.25 C0.28741211 115.77340134 0.26459978 117.29684197 0.24414062 118.8203125 C0.18912213 122.54769249 0.10287804 126.27359906 0 130 C-6.40965051 129.65318153 -11.34075264 128.37835104 -17 125.375 C-17.69279053 125.01599609 -18.38558105 124.65699219 -19.09936523 124.28710938 C-24.54141682 121.39556129 -29.47969871 118.21957438 -34 114 C-34.60972656 113.43152344 -35.21945312 112.86304688 -35.84765625 112.27734375 C-41.4690991 106.45822379 -44.6969689 99.29455682 -48 92 C-48.35449219 91.24074219 -48.70898438 90.48148437 -49.07421875 89.69921875 C-55.46884242 71.05497843 -53.31321913 49.54998917 -45.4375 31.8125 C-37.55867772 17.08684224 -23.06233148 5.58083845 -7.125 0.6875 C-4 0 -4 0 0 0 Z " fill="#022567" transform="translate(584,105)"/>
<path d="M0 0 C18.21852037 4.26390902 31.36097847 12.25519805 42 28 C51.71892194 44.9828037 53.05623017 68.21622705 48 87 C42.79386463 102.68899778 33.31973405 115.71876333 18.7265625 123.81640625 C12.56168235 126.79825387 6.68906217 128.66799112 0 130 C-0.12394421 125.39194479 -0.21449675 120.78486719 -0.2746582 116.17553711 C-0.29974547 114.60895886 -0.33382415 113.04249701 -0.37719727 111.47631836 C-0.43811226 109.21959691 -0.46626499 106.96442706 -0.48828125 104.70703125 C-0.51408768 104.01100296 -0.5398941 103.31497467 -0.56648254 102.59785461 C-0.56872514 98.67680241 -0.139227 97.16464023 2.42895508 94.12768555 C3.2773999 93.42554932 4.12584473 92.72341309 5 92 C12.84769898 83.54863187 12.50672494 69.93865018 12.13183594 59.1640625 C11.57433123 50.01272601 9.11011821 41.95344182 3 35 C2.01 34.34 1.02 33.68 0 33 C-0.26711404 30.44604513 -0.34849029 28.13725626 -0.29296875 25.5859375 C-0.28872391 24.85629791 -0.28447906 24.12665833 -0.28010559 23.37490845 C-0.26329353 21.04123241 -0.22563868 18.7084156 -0.1875 16.375 C-0.17245634 14.79428329 -0.15876738 13.21355307 -0.14648438 11.6328125 C-0.11338201 7.75487656 -0.06158404 3.87758402 0 0 Z " fill="#012467" transform="translate(616,105)"/>
<path d="M0 0 C9.9 -0.061875 9.9 -0.061875 20 -0.125 C22.06765625 -0.14320801 24.1353125 -0.16141602 26.265625 -0.18017578 C27.9270807 -0.18602375 29.5885393 -0.19111859 31.25 -0.1953125 C32.51650391 -0.2106604 32.51650391 -0.2106604 33.80859375 -0.22631836 C42.67823475 -0.22889674 50.84395886 1.32721946 57.6875 7.375 C62.55480329 12.90004698 63.56322994 16.71873301 63.33984375 23.9921875 C62.74692594 29.23985085 61.26876194 32.99754872 57.26953125 36.52734375 C49.62387242 41.79231839 40.97401748 42.30277039 31.93359375 42.1953125 C30.70872253 42.19229126 30.70872253 42.19229126 29.45910645 42.18920898 C26.45184593 42.17886178 23.44466643 42.15094067 20.4375 42.125 C13.693125 42.08375 6.94875 42.0425 0 42 C0 28.14 0 14.28 0 0 Z " fill="#FAFBFC" transform="translate(203,160)"/>
<path d="M0 0 C5.548125 -0.0825 11.09625 -0.165 16.8125 -0.25 C19.40315308 -0.30462402 19.40315308 -0.30462402 22.04614258 -0.36035156 C40.77030063 -0.5913912 40.77030063 -0.5913912 47.73022461 5.51904297 C52.47518342 10.98243156 52.34529443 15.42426388 52.2734375 22.4375 C51.91876454 27.05838197 51.06135351 30.46698447 48 34 C42.16095408 38.52526059 36.54255009 39.14307569 29.39453125 39.09765625 C28.65054077 39.09664917 27.90655029 39.09564209 27.14001465 39.09460449 C24.36416073 39.08937743 21.58832879 39.07541615 18.8125 39.0625 C9.5003125 39.0315625 9.5003125 39.0315625 0 39 C0 26.13 0 13.26 0 0 Z " fill="#FDFDFD" transform="translate(204,89)"/>
</svg>